<?xml version="1.0" encoding="UTF-8" standalone="no"?>
<!-- Created with Inkscape (http://www.inkscape.org/) -->

<svg
   width="400mm"
   height="400mm"
   viewBox="0 0 400 400"
   version="1.1"
   id="svg1"
   inkscape:version="1.4.4 (dcaf3e7, 2026-05-05)"
   sodipodi:docname="logo.svg"
   xmlns:inkscape="http://www.inkscape.org/namespaces/inkscape"
   xmlns:sodipodi="http://sodipodi.sourceforge.net/DTD/sodipodi-0.dtd"
   xmlns="http://www.w3.org/2000/svg"
   xmlns:svg="http://www.w3.org/2000/svg">
  <sodipodi:namedview
     id="namedview1"
     pagecolor="#ffffff"
     bordercolor="#000000"
     borderopacity="0.25"
     inkscape:showpageshadow="2"
     inkscape:pageopacity="0.0"
     inkscape:pagecheckerboard="0"
     inkscape:deskcolor="#d1d1d1"
     inkscape:document-units="mm"
     inkscape:zoom="0.45208753"
     inkscape:cx="666.90626"
     inkscape:cy="828.37942"
     inkscape:window-width="1368"
     inkscape:window-height="1138"
     inkscape:window-x="0"
     inkscape:window-y="44"
     inkscape:window-maximized="0"
     inkscape:current-layer="layer1" />
  <defs
     id="defs1">
    <rect
       x="373.82142"
       y="513.17496"
       width="1136.9479"
       height="995.38248"
       id="rect9" />
    <rect
       x="338.43004"
       y="411.42476"
       width="791.88206"
       height="1079.437"
       id="rect6" />
    <rect
       x="484.41947"
       y="685.70793"
       width="482.20751"
       height="358.33769"
       id="rect5" />
    <rect
       x="170.321"
       y="468.93574"
       width="738.79499"
       height="818.42559"
       id="rect2" />
    <rect
       x="347.27789"
       y="1300.6331"
       width="473.35967"
       height="225.62003"
       id="rect1" />
  </defs>
  <g
     inkscape:label="Layer 1"
     inkscape:groupmode="layer"
     id="layer1">
    <text
       xml:space="preserve"
       transform="scale(0.26458333)"
       id="text1"
       style="fill:none;writing-mode:lr-tb;text-orientation:auto;direction:ltr;white-space:pre;shape-inside:url(#rect1)" />
    <text
       xml:space="preserve"
       transform="scale(0.26458333)"
       id="text2"
       style="fill:none;writing-mode:lr-tb;text-orientation:auto;direction:ltr;white-space:pre;shape-inside:url(#rect2)" />
    <path
       style="fill:none;stroke-width:0.264583"
       id="path2"
       d="m 257.19191,183.1096 c -2.22576,0.38703 -4.44255,0.82975 -6.67728,1.16108 -13.4761,1.99805 -27.05302,3.30854 -40.56695,5.01087 -17.03463,2.14583 -15.30571,1.99871 -32.05472,4.59783 -8.85508,1.61506 -16.68237,2.65538 -25.17691,5.539 -2.64223,0.89695 -5.26294,1.9559 -7.64633,3.4069 -2.17681,1.32523 -5.67229,3.94753 -3.19547,7.07877 1.26026,1.59324 3.34908,2.30008 5.02362,3.45012 3.98625,1.56103 7.86834,3.41997 11.95876,4.68309 5.50179,1.69894 23.72539,5.21966 28.67815,6.08342 20.87622,3.64081 41.93113,6.30466 62.92063,9.18521 16.49655,2.16589 33.021,4.11941 49.5134,6.31738 2.49394,0.33237 5.00108,0.59033 7.47419,1.05275 0.43886,0.0821 1.64089,0.69335 1.21145,0.57127 -2.20763,-0.62754 -4.37328,-1.39442 -6.5599,-2.09162 -12.2406,0.72241 -24.7487,1.84929 -36.27866,6.35804 -1.85792,0.72653 -3.61166,1.69554 -5.41749,2.54331 -1.81656,1.72455 -5.37537,4.15538 -5.20227,7.33987 0.24875,4.57588 5.3704,7.99146 8.45834,10.00837 8.21816,5.36773 13.7104,7.49641 22.43374,11.45818 13.32349,5.10442 9.06365,3.58113 21.92716,8.1063 2.80162,0.98557 5.64761,1.84973 8.41518,2.92719 1.231,0.47927 4.85571,2.0057 3.56254,1.73596 -18.55521,-3.8703 11.75019,-0.36666 -10.21864,-2.47782 -11.94628,-1.67587 -23.95709,-2.80935 -35.95978,-3.98278 0,0 1.89013,1.40253 1.89013,1.40253 v 0 c 12.2669,1.27535 24.5451,2.51214 36.71636,4.54811 2.07761,0.25781 4.26215,1.48003 6.23287,0.77343 0.90411,-0.32417 -0.72075,-1.86923 -1.45725,-2.48571 -0.86701,-0.72577 -2.05255,-0.95604 -3.11536,-1.34191 -2.71441,-0.98555 -5.47867,-1.82822 -8.2087,-2.76963 -12.19099,-4.20381 -9.20366,-3.18802 -21.84564,-8.07255 -4.11768,-1.89216 -13.18313,-5.74341 -17.53658,-8.67986 -2.8088,-1.89458 -7.88377,-5.16021 -8.22218,-9.43767 -0.24739,-3.12695 3.13312,-5.49797 4.89071,-7.22846 1.7658,-0.85818 3.47617,-1.84121 5.29735,-2.57454 11.56168,-4.65549 24.21136,-5.78085 36.54597,-6.05605 0.19545,-0.79581 0.61539,-1.56848 0.58634,-2.38742 -0.008,-0.22555 -0.44886,-0.0476 -0.67347,-0.0697 -2.32711,-0.22951 -4.6559,-0.44251 -6.98166,-0.68529 -16.24121,-1.69543 -32.44946,-3.68337 -48.65559,-5.68182 -16.38774,-2.23091 -27.14727,-3.60376 -43.53162,-6.20892 -11.5797,-1.8412 -24.16299,-3.99889 -35.68258,-6.57904 -4.51219,-1.01064 -8.97737,-2.22095 -13.46022,-3.35466 -2.21181,-0.55937 -4.41567,-1.14969 -6.6235,-1.72453 -1.62543,-1.02923 -3.59851,-1.64941 -4.87627,-3.08768 -2.55602,-2.8771 0.25092,-5.44866 2.50012,-6.96851 2.24735,-1.51861 4.76361,-2.63891 7.30839,-3.57743 8.35911,-3.08286 15.95521,-4.11642 24.73974,-5.80885 5.22004,-0.82562 10.42853,-1.72785 15.6601,-2.47684 21.59477,-3.0917 43.34642,-4.83935 65.00642,-7.37305 z" />
    <path
       style="fill:none;stroke-width:0.264583"
       id="path3"
       d="m 197.56122,194.62305 c -21.92118,0.80937 -43.61821,4.66138 -64.61335,10.97596 -5.34662,1.60808 -10.59093,3.53855 -15.88639,5.30782 -9.05048,4.63197 -22.693965,10.06921 -24.980478,21.72456 -0.525714,2.67979 -0.540234,5.73049 0.701956,8.16249 4.693748,9.18957 16.559572,13.7252 24.443812,18.24166 7.03849,2.38934 14.07697,4.77869 21.11546,7.16805 0,0 -1.07748,-0.83905 -1.07748,-0.83905 v 0 c -7.21288,-2.54142 -14.42575,-5.08283 -21.63862,-7.62425 -7.39344,-4.23182 -15.889719,-7.38938 -20.111286,-15.58689 -1.235699,-2.3995 -1.290069,-5.39244 -0.838713,-8.05343 1.999488,-11.78815 15.027309,-17.21254 24.085649,-22.04034 5.2592,-1.7887 10.45422,-3.77857 15.7776,-5.36612 21.32427,-6.35936 43.51897,-9.75682 65.76165,-10.09086 z" />
    <path
       style="fill:none;stroke-width:0.264583"
       id="path4"
       d="m 199.18912,145.65417 c -10.48135,4.32454 -21.09501,8.32397 -31.56665,12.6759 -4.79741,1.99377 -9.56655,4.05492 -14.34983,6.08238 -17.643,8.05635 -35.18484,16.38309 -52.13495,25.83152 -5.476717,3.05286 -11.009868,6.03495 -16.231844,9.50559 -13.431644,8.92696 -16.11195,12.31705 -27.618144,23.11895 -3.074115,4.32296 -6.579196,8.36975 -9.222343,12.96887 -3.691544,6.42334 -7.919636,16.93344 -7.38197,24.76633 0.267372,3.89521 1.572032,7.76001 3.405388,11.20716 5.018209,9.43547 10.456669,11.64688 18.963407,17.59405 5.40345,2.34366 10.806901,4.68734 16.210351,7.03099 0,0 -1.732838,-1.36631 -1.732838,-1.36631 v 0 c -4.077078,-1.59348 -8.154157,-3.18693 -12.231235,-4.78041 -8.475607,-5.88936 -13.77896,-8.01071 -18.823768,-17.35146 -1.847934,-3.42156 -3.185099,-7.25188 -3.503684,-11.12749 -0.645932,-7.85783 3.314124,-18.35627 6.946498,-24.88138 2.571417,-4.61923 6.034376,-8.6824 9.051565,-13.0236 11.779353,-11.23367 13.598252,-13.90474 27.457701,-23.16986 5.197703,-3.47469 10.686577,-6.49765 16.139236,-9.55675 16.99081,-9.53238 34.62217,-17.87311 52.51473,-25.55792 4.87264,-1.96556 9.72116,-3.99204 14.61794,-5.89668 8.56311,-3.33069 12.58508,-4.63809 20.69861,-7.56005 3.19144,-1.14934 6.35077,-2.38659 9.54225,-3.53585 0.81077,-0.29196 1.63486,-0.54549 2.4523,-0.81824 z" />
    <path
       style="fill:none;stroke-width:0.264583"
       id="path5"
       d="m 259.5212,60.51393 c -4.20471,2.710503 -8.15282,5.099709 -11.95941,8.514683 -3.47911,3.121184 -6.73961,6.487303 -9.88911,9.940798 -8.33613,9.140748 -14.27256,16.509937 -20.07001,27.634629 -2.93229,5.62676 -4.9814,11.67136 -7.4721,17.50704 -1.60752,6.25945 -3.74674,12.40595 -4.82256,18.77835 -1.91792,11.36042 -2.37783,27.27084 -0.28533,38.69184 1.16748,6.37219 3.12681,12.61784 5.5536,18.62438 2.31016,5.71787 5.0662,11.32484 8.59108,16.38508 3.46521,4.97459 8.14092,8.98567 12.21138,13.47851 5.1705,3.28601 10.06055,7.06177 15.51149,9.85804 11.64838,5.97548 21.71739,9.25195 34.67459,10.33298 5.40239,0.45073 10.89504,0.53372 16.26182,-0.23222 14.37711,-2.05186 18.03019,-5.5151 30.49849,-12.34342 4.06054,-3.54884 8.51993,-6.68747 12.18163,-10.64654 6.74021,-7.28757 11.78351,-15.72167 14.31676,-25.36447 1.13155,-4.30726 1.95157,-8.82421 1.60187,-13.26387 -0.8935,-11.34324 -5.73207,-17.83743 -10.94557,-27.50336 -3.52415,-3.86259 -6.70677,-8.067 -10.57244,-11.58777 -7.41158,-6.75029 -17.16804,-12.64911 -26.45399,-16.31333 -6.32989,-2.49775 -16.08542,-4.42758 -23.03912,-3.39253 -3.36392,0.50071 -6.428,2.2243 -9.64198,3.33645 -2.55013,1.99678 -5.3984,3.66255 -7.65042,5.99036 -3.49205,3.60952 -7.51677,10.27422 -8.3222,15.39883 -0.44468,2.82929 0.25722,5.72226 0.38582,8.58339 0,0 2.68458,1.35163 2.68458,1.35163 v 0 c -0.1453,-2.82437 -0.85325,-5.67596 -0.43589,-8.47309 0.7647,-5.12497 4.63999,-11.70008 8.1205,-15.32948 2.21711,-2.31195 5.03524,-3.96094 7.55285,-5.94142 3.16913,-1.10351 6.18975,-2.80622 9.50738,-3.31054 3.58225,-0.54454 7.28186,-0.30442 10.86808,0.21323 12.94813,1.86895 24.80283,8.3411 34.41602,17.04399 3.85609,3.49096 7.02302,7.67479 10.53454,11.51219 5.27627,9.76838 9.91061,15.84534 10.82591,27.28599 0.35449,4.43104 -0.39741,8.94325 -1.4899,13.2521 -2.43771,9.61442 -7.38772,18.10677 -14.06244,25.39248 -3.62969,3.96193 -8.07517,7.09066 -12.11273,10.63599 -12.5756,6.85484 -15.99372,10.1853 -30.47715,12.23506 -10.42339,1.47516 -22.65357,6e-5 -32.71258,-2.70861 -5.07353,-1.36619 -10.08863,-3.11296 -14.77958,-5.47984 -5.46109,-2.75546 -10.34136,-6.5361 -15.51204,-9.80415 -4.08863,-4.48366 -8.77816,-8.48552 -12.2659,-13.45098 -3.55616,-5.06286 -6.36508,-10.66637 -8.69888,-16.39631 -2.43789,-5.98548 -4.37219,-12.22315 -5.54637,-18.5785 -2.14026,-11.58432 -1.72204,-27.11669 0.23979,-38.65128 1.08155,-6.35902 3.23047,-12.48967 4.84571,-18.73451 2.51966,-5.80767 4.58448,-11.83464 7.55898,-17.42303 5.65367,-10.62194 12.1748,-18.760298 20.43802,-27.355893 7.07752,-7.362209 13.90884,-13.088824 22.98686,-17.589034 z" />
    <text
       xml:space="preserve"
       transform="scale(0.26458333)"
       id="text5"
       style="writing-mode:lr-tb;direction:ltr;white-space:pre;shape-inside:url(#rect5);fill:none"><tspan
         x="484.41992"
         y="696.655"
         id="tspan1">CR</tspan></text>
    <text
       xml:space="preserve"
       transform="scale(0.26458333)"
       id="text6"
       style="font-style:normal;font-variant:normal;font-weight:normal;font-stretch:normal;font-size:96px;font-family:'Helvetica Neue';-inkscape-font-specification:'Helvetica Neue';writing-mode:lr-tb;direction:ltr;white-space:pre;shape-inside:url(#rect6);fill:none"><tspan
         x="338.42969"
         y="501.8719"
         id="tspan2">CR</tspan></text>
    <text
       xml:space="preserve"
       transform="matrix(0.26458333,0,0,0.26458333,-24.491737,-44.47885)"
       id="text9"
       style="font-style:normal;font-variant:normal;font-weight:normal;font-stretch:normal;font-size:666.667px;font-family:'Helvetica Neue';-inkscape-font-specification:'Helvetica Neue';writing-mode:lr-tb;direction:ltr;white-space:pre;shape-inside:url(#rect9);fill:#00ff00"><tspan
         x="373.82227"
         y="1141.2877"
         id="tspan4">C<tspan
   style="fill:#ff6600"
   id="tspan3">R</tspan></tspan></text>
  </g>
</svg>
